<svg width="40" height="41" viewBox="0 0 40 41" fill="none" xmlns="http://www.w3.org/2000/svg">
<path d="M15.8333 23.0021C15.8333 24.6188 17.0833 25.9188 18.6166 25.9188H21.7499C23.0832 25.9188 24.1666 24.7855 24.1666 23.3688C24.1666 21.8521 23.4999 21.3021 22.5166 20.9521L17.4999 19.2021C16.5166 18.8521 15.8499 18.3188 15.8499 16.7855C15.8499 15.3855 16.9332 14.2355 18.2666 14.2355H21.3999C22.9332 14.2355 24.1833 15.5355 24.1833 17.1521" stroke="#FA541C" stroke-linecap="round" stroke-linejoin="round"/>
<path d="M20 12.5854V27.5854" stroke="#FA541C" stroke-linecap="round" stroke-linejoin="round"/>
<path d="M36.6666 20.0855C36.6666 29.2855 29.1999 36.7522 19.9999 36.7522C10.7999 36.7522 3.33325 29.2855 3.33325 20.0855C3.33325 10.8855 10.7999 3.41882 19.9999 3.41882" stroke="#FA541C" stroke-linecap="round" stroke-linejoin="round"/>
<path d="M30 5.95215L32.5333 8.48549L37.6 3.41882" stroke="#FA541C" stroke-width="2" stroke-linecap="round" stroke-linejoin="round"/>
</svg>
