<svg width="290" height="15" viewBox="0 0 290 15" fill="none" xmlns="http://www.w3.org/2000/svg">
<path d="M10.6061 10.2014C9.47546 11.3321 8.11013 11.8974 6.51013 11.8974C4.91013 11.8974 3.54479 11.3321 2.41413 10.2014C1.28346 9.07078 0.718125 7.70544 0.718125 6.10544C0.718125 4.50544 1.28346 3.14011 2.41413 2.00944C3.54479 0.878778 4.91013 0.313444 6.51013 0.313444C8.11013 0.313444 9.47546 0.878778 10.6061 2.00944C11.7368 3.14011 12.3021 4.50544 12.3021 6.10544C12.3021 7.70544 11.7368 9.07078 10.6061 10.2014ZM2.75013 9.89744C3.79546 10.9321 5.04879 11.4494 6.51013 11.4494C7.97146 11.4494 9.21946 10.9321 10.2541 9.89744C11.2995 8.85211 11.8221 7.58811 11.8221 6.10544C11.8221 4.62278 11.2995 3.36411 10.2541 2.32944C9.21946 1.28411 7.97146 0.761444 6.51013 0.761444C5.04879 0.761444 3.79546 1.28411 2.75013 2.32944C1.71546 3.36411 1.19813 4.62278 1.19813 6.10544C1.19813 7.58811 1.71546 8.85211 2.75013 9.89744ZM6.55813 9.17744C5.68346 9.17744 4.94746 8.87878 4.35013 8.28144C3.75279 7.68411 3.45413 6.95878 3.45413 6.10544C3.45413 5.25211 3.75279 4.52678 4.35013 3.92944C4.94746 3.33211 5.68346 3.03344 6.55813 3.03344C7.12346 3.03344 7.63546 3.16678 8.09413 3.43344C8.56346 3.70011 8.92613 4.06278 9.18213 4.52144L8.30212 5.03344C8.15279 4.70278 7.91813 4.45211 7.59813 4.28144C7.27813 4.11078 6.93146 4.02544 6.55813 4.02544C5.93946 4.02544 5.43813 4.23344 5.05413 4.64944C4.68079 5.05478 4.49413 5.54011 4.49413 6.10544C4.49413 6.67078 4.68079 7.16144 5.05413 7.57744C5.43813 7.98278 5.93946 8.18544 6.55813 8.18544C6.94213 8.18544 7.29413 8.10011 7.61413 7.92944C7.93413 7.74811 8.16879 7.49211 8.31813 7.16144L9.19813 7.68944C8.94213 8.14811 8.57946 8.51078 8.11013 8.77744C7.64079 9.04411 7.12346 9.17744 6.55813 9.17744ZM17.5775 11.7054V10.6974L21.6095 6.63344C22.7615 5.48144 23.3375 4.49478 23.3375 3.67344C23.3375 2.95878 23.1135 2.40411 22.6655 2.00944C22.2282 1.60411 21.7002 1.40144 21.0815 1.40144C19.9295 1.40144 19.0922 1.92944 18.5695 2.98544L17.6255 2.42544C17.9775 1.73211 18.4575 1.20944 19.0655 0.857444C19.6735 0.494777 20.3455 0.313444 21.0815 0.313444C21.9775 0.313444 22.7615 0.617444 23.4335 1.22544C24.1162 1.82278 24.4575 2.63878 24.4575 3.67344C24.4575 4.32411 24.2762 4.94811 23.9135 5.54544C23.5508 6.14278 23.0388 6.77211 22.3775 7.43344L19.1775 10.6174H24.6975V11.7054H17.5775ZM33.3475 10.3294C32.6115 11.3748 31.5715 11.8974 30.2275 11.8974C28.8835 11.8974 27.8382 11.3748 27.0915 10.3294C26.3555 9.27344 25.9875 7.86544 25.9875 6.10544C25.9875 4.34544 26.3555 2.94278 27.0915 1.89744C27.8382 0.841444 28.8835 0.313444 30.2275 0.313444C31.5715 0.313444 32.6115 0.841444 33.3475 1.89744C34.0942 2.94278 34.4675 4.34544 34.4675 6.10544C34.4675 7.86544 34.0942 9.27344 33.3475 10.3294ZM27.9235 9.57744C28.4782 10.3988 29.2462 10.8094 30.2275 10.8094C31.2088 10.8094 31.9715 10.3988 32.5155 9.57744C33.0702 8.75611 33.3475 7.59878 33.3475 6.10544C33.3475 4.61211 33.0702 3.45478 32.5155 2.63344C31.9715 1.81211 31.2088 1.40144 30.2275 1.40144C29.2462 1.40144 28.4782 1.81211 27.9235 2.63344C27.3795 3.45478 27.1075 4.61211 27.1075 6.10544C27.1075 7.59878 27.3795 8.75611 27.9235 9.57744ZM35.7494 11.7054V10.6974L39.7814 6.63344C40.9334 5.48144 41.5094 4.49478 41.5094 3.67344C41.5094 2.95878 41.2854 2.40411 40.8374 2.00944C40.4 1.60411 39.872 1.40144 39.2534 1.40144C38.1014 1.40144 37.264 1.92944 36.7414 2.98544L35.7974 2.42544C36.1494 1.73211 36.6294 1.20944 37.2374 0.857444C37.8454 0.494777 38.5174 0.313444 39.2534 0.313444C40.1494 0.313444 40.9334 0.617444 41.6054 1.22544C42.288 1.82278 42.6294 2.63878 42.6294 3.67344C42.6294 4.32411 42.448 4.94811 42.0854 5.54544C41.7227 6.14278 41.2107 6.77211 40.5494 7.43344L37.3494 10.6174H42.8694V11.7054H35.7494ZM46.7156 0.505444H47.6756V11.7054H46.5556V1.73744L44.0436 2.48944L43.7556 1.52944L46.7156 0.505444ZM51.8331 10.3454L50.8731 13.9454H49.9131L50.5531 10.3454H51.8331ZM139.683 11.6094C139.512 11.7801 139.304 11.8654 139.059 11.8654C138.813 11.8654 138.605 11.7801 138.435 11.6094C138.264 11.4388 138.179 11.2308 138.179 10.9854C138.179 10.7401 138.264 10.5321 138.435 10.3614C138.605 10.1908 138.813 10.1054 139.059 10.1054C139.304 10.1054 139.512 10.1908 139.683 10.3614C139.853 10.5321 139.939 10.7401 139.939 10.9854C139.939 11.2308 139.853 11.4388 139.683 11.6094ZM150.186 0.505444C151.189 0.505444 152.026 0.841444 152.698 1.51344C153.37 2.18544 153.706 3.02278 153.706 4.02544C153.706 5.02811 153.37 5.86544 152.698 6.53744C152.026 7.20944 151.189 7.54544 150.186 7.54544H147.306V11.7054H146.186V0.505444H150.186ZM150.186 6.48944C150.88 6.48944 151.45 6.26011 151.898 5.80144C152.357 5.33211 152.586 4.74011 152.586 4.02544C152.586 3.31078 152.357 2.72411 151.898 2.26544C151.45 1.79611 150.88 1.56144 150.186 1.56144H147.306V6.48944H150.186ZM161.527 10.6974C160.716 11.4974 159.724 11.8974 158.551 11.8974C157.378 11.8974 156.38 11.4974 155.559 10.6974C154.748 9.88678 154.343 8.88944 154.343 7.70544C154.343 6.52144 154.748 5.52944 155.559 4.72944C156.38 3.91878 157.378 3.51344 158.551 3.51344C159.724 3.51344 160.716 3.91878 161.527 4.72944C162.348 5.52944 162.759 6.52144 162.759 7.70544C162.759 8.88944 162.348 9.88678 161.527 10.6974ZM156.311 9.96144C156.919 10.5694 157.666 10.8734 158.551 10.8734C159.436 10.8734 160.183 10.5694 160.791 9.96144C161.399 9.34278 161.703 8.59078 161.703 7.70544C161.703 6.82011 161.399 6.07344 160.791 5.46544C160.183 4.84678 159.436 4.53744 158.551 4.53744C157.666 4.53744 156.919 4.84678 156.311 5.46544C155.703 6.07344 155.399 6.82011 155.399 7.70544C155.399 8.59078 155.703 9.34278 156.311 9.96144ZM173.846 3.70544H174.934L172.47 11.7054H171.318L169.254 5.25744L167.19 11.7054H166.038L163.574 3.70544H164.662L166.63 10.3454L168.726 3.70544H169.782L171.878 10.3454L173.846 3.70544ZM179.91 3.51344C181.094 3.51344 182.048 3.93478 182.774 4.77744C183.51 5.60944 183.878 6.59611 183.878 7.73744C183.878 7.85478 183.867 8.02011 183.846 8.23344H176.822C176.928 9.04411 177.27 9.68944 177.846 10.1694C178.432 10.6388 179.152 10.8734 180.006 10.8734C180.614 10.8734 181.136 10.7508 181.574 10.5054C182.022 10.2494 182.358 9.91878 182.582 9.51344L183.51 10.0574C183.158 10.6228 182.678 11.0708 182.07 11.4014C181.462 11.7321 180.768 11.8974 179.99 11.8974C178.731 11.8974 177.707 11.5028 176.918 10.7134C176.128 9.92411 175.734 8.92144 175.734 7.70544C175.734 6.51078 176.123 5.51344 176.902 4.71344C177.68 3.91344 178.683 3.51344 179.91 3.51344ZM179.91 4.53744C179.078 4.53744 178.379 4.78811 177.814 5.28944C177.259 5.78011 176.928 6.42011 176.822 7.20944H182.79C182.683 6.36678 182.358 5.71078 181.814 5.24144C181.27 4.77211 180.635 4.53744 179.91 4.53744ZM186.614 5.03344C187.104 4.06278 187.947 3.57744 189.141 3.57744V4.60144C188.416 4.60144 187.814 4.81478 187.334 5.24144C186.854 5.66811 186.614 6.34011 186.614 7.25744V11.7054H185.558V3.70544H186.614V5.03344ZM193.8 3.51344C194.984 3.51344 195.939 3.93478 196.664 4.77744C197.4 5.60944 197.768 6.59611 197.768 7.73744C197.768 7.85478 197.758 8.02011 197.736 8.23344H190.712C190.819 9.04411 191.16 9.68944 191.736 10.1694C192.323 10.6388 193.043 10.8734 193.896 10.8734C194.504 10.8734 195.027 10.7508 195.464 10.5054C195.912 10.2494 196.248 9.91878 196.472 9.51344L197.4 10.0574C197.048 10.6228 196.568 11.0708 195.96 11.4014C195.352 11.7321 194.659 11.8974 193.88 11.8974C192.622 11.8974 191.598 11.5028 190.808 10.7134C190.019 9.92411 189.624 8.92144 189.624 7.70544C189.624 6.51078 190.014 5.51344 190.792 4.71344C191.571 3.91344 192.574 3.51344 193.8 3.51344ZM193.8 4.53744C192.968 4.53744 192.27 4.78811 191.704 5.28944C191.15 5.78011 190.819 6.42011 190.712 7.20944H196.68C196.574 6.36678 196.248 5.71078 195.704 5.24144C195.16 4.77211 194.526 4.53744 193.8 4.53744ZM206.328 0.505444H207.384V11.7054H206.328V10.1374C205.592 11.3108 204.515 11.8974 203.096 11.8974C201.955 11.8974 200.979 11.4921 200.168 10.6814C199.368 9.87078 198.968 8.87878 198.968 7.70544C198.968 6.53211 199.368 5.54011 200.168 4.72944C200.979 3.91878 201.955 3.51344 203.096 3.51344C204.515 3.51344 205.592 4.10011 206.328 5.27344V0.505444ZM200.936 9.96144C201.544 10.5694 202.291 10.8734 203.176 10.8734C204.061 10.8734 204.808 10.5694 205.416 9.96144C206.024 9.34278 206.328 8.59078 206.328 7.70544C206.328 6.82011 206.024 6.07344 205.416 5.46544C204.808 4.84678 204.061 4.53744 203.176 4.53744C202.291 4.53744 201.544 4.84678 200.936 5.46544C200.328 6.07344 200.024 6.82011 200.024 7.70544C200.024 8.59078 200.328 9.34278 200.936 9.96144ZM217.908 3.51344C219.049 3.51344 220.02 3.91878 220.82 4.72944C221.631 5.54011 222.036 6.53211 222.036 7.70544C222.036 8.87878 221.631 9.87078 220.82 10.6814C220.02 11.4921 219.049 11.8974 217.908 11.8974C216.489 11.8974 215.412 11.3108 214.676 10.1374V11.7054H213.62V0.505444H214.676V5.27344C215.412 4.10011 216.489 3.51344 217.908 3.51344ZM215.588 9.96144C216.196 10.5694 216.943 10.8734 217.828 10.8734C218.713 10.8734 219.46 10.5694 220.068 9.96144C220.676 9.34278 220.98 8.59078 220.98 7.70544C220.98 6.82011 220.676 6.07344 220.068 5.46544C219.46 4.84678 218.713 4.53744 217.828 4.53744C216.943 4.53744 216.196 4.84678 215.588 5.46544C214.98 6.07344 214.676 6.82011 214.676 7.70544C214.676 8.59078 214.98 9.34278 215.588 9.96144ZM229.239 3.70544H230.359L226.935 12.4414C226.626 13.2308 226.183 13.8494 225.607 14.2974C225.042 14.7561 224.407 14.9588 223.703 14.9054V13.9134C224.663 14.0201 225.394 13.4654 225.895 12.2494L226.103 11.7534L222.519 3.70544H223.639L226.647 10.4094L229.239 3.70544ZM239.316 11.8974C238.292 11.8974 237.412 11.6574 236.676 11.1774C235.95 10.6868 235.444 10.0148 235.156 9.16144L236.116 8.60144C236.318 9.29478 236.692 9.83878 237.236 10.2334C237.78 10.6174 238.478 10.8094 239.332 10.8094C240.164 10.8094 240.809 10.6281 241.268 10.2654C241.737 9.89211 241.972 9.40144 241.972 8.79344C241.972 8.20678 241.758 7.76411 241.332 7.46544C240.905 7.16678 240.201 6.85744 239.22 6.53744C238.057 6.15344 237.289 5.84411 236.916 5.60944C236.062 5.09744 235.636 4.35611 235.636 3.38544C235.636 2.43611 235.966 1.68944 236.628 1.14544C237.289 0.590777 238.105 0.313444 239.076 0.313444C239.95 0.313444 240.708 0.542777 241.348 1.00144C241.988 1.44944 242.462 2.02544 242.772 2.72944L241.828 3.25744C241.316 2.02011 240.398 1.40144 239.076 1.40144C238.382 1.40144 237.822 1.57211 237.396 1.91344C236.969 2.25478 236.756 2.72944 236.756 3.33744C236.756 3.89211 236.948 4.30811 237.332 4.58544C237.716 4.86278 238.35 5.14544 239.236 5.43344C239.641 5.57211 239.929 5.67344 240.1 5.73744C240.281 5.79078 240.537 5.88678 240.868 6.02544C241.209 6.15344 241.46 6.27078 241.62 6.37744C241.78 6.47344 241.972 6.61211 242.196 6.79344C242.43 6.96411 242.596 7.14011 242.692 7.32144C242.798 7.49211 242.889 7.70544 242.964 7.96144C243.049 8.20678 243.092 8.47344 243.092 8.76144C243.092 9.71078 242.745 10.4734 242.052 11.0494C241.358 11.6148 240.446 11.8974 239.316 11.8974ZM248.598 3.51344C249.569 3.51344 250.332 3.81211 250.886 4.40944C251.452 4.99611 251.734 5.79078 251.734 6.79344V11.7054H250.678V6.79344C250.678 6.07878 250.486 5.52411 250.102 5.12944C249.729 4.73478 249.196 4.53744 248.502 4.53744C247.734 4.53744 247.11 4.78278 246.63 5.27344C246.15 5.75344 245.91 6.50011 245.91 7.51344V11.7054H244.854V0.505444H245.91V4.95344C246.508 3.99344 247.404 3.51344 248.598 3.51344ZM260.48 10.6974C259.67 11.4974 258.678 11.8974 257.504 11.8974C256.331 11.8974 255.334 11.4974 254.512 10.6974C253.702 9.88678 253.296 8.88944 253.296 7.70544C253.296 6.52144 253.702 5.52944 254.512 4.72944C255.334 3.91878 256.331 3.51344 257.504 3.51344C258.678 3.51344 259.67 3.91878 260.48 4.72944C261.302 5.52944 261.712 6.52144 261.712 7.70544C261.712 8.88944 261.302 9.88678 260.48 10.6974ZM255.264 9.96144C255.872 10.5694 256.619 10.8734 257.504 10.8734C258.39 10.8734 259.136 10.5694 259.744 9.96144C260.352 9.34278 260.656 8.59078 260.656 7.70544C260.656 6.82011 260.352 6.07344 259.744 5.46544C259.136 4.84678 258.39 4.53744 257.504 4.53744C256.619 4.53744 255.872 4.84678 255.264 5.46544C254.656 6.07344 254.352 6.82011 254.352 7.70544C254.352 8.59078 254.656 9.34278 255.264 9.96144ZM267.767 3.51344C268.909 3.51344 269.879 3.91878 270.679 4.72944C271.49 5.54011 271.895 6.53211 271.895 7.70544C271.895 8.87878 271.49 9.87078 270.679 10.6814C269.879 11.4921 268.909 11.8974 267.767 11.8974C266.349 11.8974 265.271 11.3108 264.535 10.1374V14.9054H263.479V3.70544H264.535V5.27344C265.271 4.10011 266.349 3.51344 267.767 3.51344ZM265.447 9.96144C266.055 10.5694 266.802 10.8734 267.687 10.8734C268.573 10.8734 269.319 10.5694 269.927 9.96144C270.535 9.34278 270.839 8.59078 270.839 7.70544C270.839 6.82011 270.535 6.07344 269.927 5.46544C269.319 4.84678 268.573 4.53744 267.687 4.53744C266.802 4.53744 266.055 4.84678 265.447 5.46544C264.839 6.07344 264.535 6.82011 264.535 7.70544C264.535 8.59078 264.839 9.34278 265.447 9.96144ZM274.723 1.78544C274.574 1.93478 274.393 2.00944 274.179 2.00944C273.966 2.00944 273.785 1.93478 273.635 1.78544C273.486 1.63611 273.411 1.45478 273.411 1.24144C273.411 1.02811 273.486 0.846777 273.635 0.697444C273.785 0.548111 273.966 0.473444 274.179 0.473444C274.393 0.473444 274.574 0.548111 274.723 0.697444C274.873 0.846777 274.947 1.02811 274.947 1.24144C274.947 1.45478 274.873 1.63611 274.723 1.78544ZM273.651 11.7054V3.70544H274.707V11.7054H273.651ZM280.948 1.33744C280.169 1.27344 279.588 1.40678 279.204 1.73744C278.831 2.06811 278.644 2.61744 278.644 3.38544V3.70544H280.948V4.72944H278.644V11.7054H277.588V4.72944H276.228V3.70544H277.588V3.38544C277.588 2.34011 277.876 1.55078 278.452 1.01744C279.039 0.473444 279.871 0.238777 280.948 0.313444V1.33744ZM288.146 3.70544H289.266L285.842 12.4414C285.532 13.2308 285.09 13.8494 284.514 14.2974C283.948 14.7561 283.314 14.9588 282.61 14.9054V13.9134C283.57 14.0201 284.3 13.4654 284.802 12.2494L285.01 11.7534L281.426 3.70544H282.546L285.554 10.4094L288.146 3.70544Z" fill="#3D3737"/>
<path d="M68.7809 6.37744V6.95344C68.7809 8.34011 68.2849 9.51344 67.2929 10.4734C66.3009 11.4228 64.9729 11.8974 63.3089 11.8974C61.6129 11.8974 60.2102 11.3374 59.1009 10.2174C57.9915 9.09744 57.4369 7.72678 57.4369 6.10544C57.4369 4.48411 57.9915 3.11344 59.1009 1.99344C60.2102 0.873444 61.6129 0.313444 63.3089 0.313444C64.3435 0.313444 65.2929 0.564111 66.1569 1.06544C67.0209 1.56678 67.6875 2.23344 68.1569 3.06544L67.1649 3.64144C66.8129 2.95878 66.2902 2.41478 65.5969 2.00944C64.9035 1.60411 64.1409 1.40144 63.3089 1.40144C61.9115 1.40144 60.7702 1.85478 59.8849 2.76144C58.9995 3.66811 58.5569 4.78278 58.5569 6.10544C58.5569 7.42811 58.9995 8.54278 59.8849 9.44944C60.7702 10.3561 61.9115 10.8094 63.3089 10.8094C64.5675 10.8094 65.5755 10.4948 66.3329 9.86544C67.0902 9.22544 67.5222 8.41478 67.6289 7.43344H63.1809V6.37744H68.7809ZM79.9659 10.2174C78.8459 11.3374 77.4752 11.8974 75.8539 11.8974C74.2325 11.8974 72.8619 11.3374 71.7419 10.2174C70.6219 9.08678 70.0619 7.71611 70.0619 6.10544C70.0619 4.49478 70.6219 3.12944 71.7419 2.00944C72.8619 0.878778 74.2325 0.313444 75.8539 0.313444C77.4752 0.313444 78.8459 0.878778 79.9659 2.00944C81.0859 3.12944 81.6459 4.49478 81.6459 6.10544C81.6459 7.71611 81.0859 9.08678 79.9659 10.2174ZM72.5259 9.44944C73.4219 10.3561 74.5312 10.8094 75.8539 10.8094C77.1765 10.8094 78.2859 10.3561 79.1819 9.44944C80.0779 8.53211 80.5259 7.41744 80.5259 6.10544C80.5259 4.79344 80.0779 3.68411 79.1819 2.77744C78.2859 1.86011 77.1765 1.40144 75.8539 1.40144C74.5312 1.40144 73.4219 1.86011 72.5259 2.77744C71.6299 3.68411 71.1819 4.79344 71.1819 6.10544C71.1819 7.41744 71.6299 8.53211 72.5259 9.44944ZM92.8253 10.2174C91.7053 11.3374 90.3346 11.8974 88.7133 11.8974C87.0919 11.8974 85.7213 11.3374 84.6013 10.2174C83.4813 9.08678 82.9213 7.71611 82.9213 6.10544C82.9213 4.49478 83.4813 3.12944 84.6013 2.00944C85.7213 0.878778 87.0919 0.313444 88.7133 0.313444C90.3346 0.313444 91.7053 0.878778 92.8253 2.00944C93.9453 3.12944 94.5053 4.49478 94.5053 6.10544C94.5053 7.71611 93.9453 9.08678 92.8253 10.2174ZM85.3853 9.44944C86.2813 10.3561 87.3906 10.8094 88.7133 10.8094C90.0359 10.8094 91.1453 10.3561 92.0413 9.44944C92.9373 8.53211 93.3853 7.41744 93.3853 6.10544C93.3853 4.79344 92.9373 3.68411 92.0413 2.77744C91.1453 1.86011 90.0359 1.40144 88.7133 1.40144C87.3906 1.40144 86.2813 1.86011 85.3853 2.77744C84.4893 3.68411 84.0413 4.79344 84.0413 6.10544C84.0413 7.41744 84.4893 8.53211 85.3853 9.44944ZM100.741 0.505444C102.266 0.505444 103.525 1.04944 104.517 2.13744C105.519 3.21478 106.021 4.53744 106.021 6.10544C106.021 7.67344 105.519 9.00144 104.517 10.0894C103.525 11.1668 102.266 11.7054 100.741 11.7054H96.4206V0.505444H100.741ZM100.741 10.6494C101.967 10.6494 102.97 10.2121 103.749 9.33744C104.538 8.46278 104.933 7.38544 104.933 6.10544C104.933 4.82544 104.538 3.74811 103.749 2.87344C102.97 1.99878 101.967 1.56144 100.741 1.56144H97.5406V10.6494H100.741ZM115.536 8.40944V9.46544H114.096V11.7054H112.976V9.46544H107.056V8.40944L111.216 0.505444H112.448L108.288 8.40944H112.976V4.98544H114.096V8.40944H115.536ZM127.458 0.505444V11.7054H126.338V2.20144L122.418 8.76144H122.258L118.338 2.20144V11.7054H117.218V0.505444H118.61L122.338 6.74544L126.066 0.505444H127.458ZM131.134 10.6494H136.574V11.7054H130.014V0.505444H136.494V1.56144H131.134V5.52944H136.094V6.58544H131.134V10.6494Z" fill="#FA541C"/>
</svg>
