<svg width="147" height="20" viewBox="0 0 147 20" fill="none" xmlns="http://www.w3.org/2000/svg">
<path d="M145.442 2.12927L145.442 2.12929L145.445 2.13612C145.962 3.35992 146.25 5.55233 146.25 9.5863V9.58632V9.58634V9.58636V9.58638V9.5864V9.58643V9.58645V9.58647V9.58649V9.58651V9.58653V9.58655V9.58658V9.5866V9.58662V9.58664V9.58667V9.58669V9.58671V9.58673V9.58676V9.58678V9.5868V9.58683V9.58685V9.58687V9.5869V9.58692V9.58695V9.58697V9.58699V9.58702V9.58704V9.58707V9.58709V9.58712V9.58714V9.58717V9.58719V9.58722V9.58724V9.58727V9.58729V9.58732V9.58734V9.58737V9.58739V9.58742V9.58744V9.58747V9.5875V9.58752V9.58755V9.58757V9.5876V9.58763V9.58765V9.58768V9.5877V9.58773V9.58776V9.58778V9.58781V9.58784V9.58786V9.58789V9.58792V9.58794V9.58797V9.588V9.58802V9.58805V9.58808V9.5881V9.58813V9.58816V9.58817V9.5882V9.58822V9.58825V9.58828V9.5883V9.58832V9.58834V9.58837V9.5884V9.58842V9.58844V9.58847V9.58849V9.58852V9.58855V9.58857V9.5886V9.58863V9.58865V9.58868V9.58871V9.58873V9.58876V9.58879V9.58881V9.58884V9.58887V9.58889V9.58892V9.58895V9.58897V9.589V9.58903V9.58905V9.58908V9.58911V9.58913V9.58916V9.58918V9.58921V9.58924V9.58926V9.58929V9.58931V9.58934V9.58937V9.58939V9.58942V9.58944V9.58947V9.58949V9.58952V9.58954V9.58957V9.58959V9.58962V9.58964V9.58967V9.58969V9.58972V9.58974V9.58977V9.58979V9.58982V9.58984V9.58986V9.58989V9.58991V9.58994V9.58996V9.58998V9.59001V9.59003V9.59005V9.59008V9.5901V9.59012V9.59014V9.59017V9.59019V9.59021V9.59023V9.59026V9.59028V9.5903V9.59032V9.59034V9.59036V9.59039V9.59041V9.59043V9.59045V9.59047V9.59049V9.59051V9.59053V9.59055V9.59057V9.59059V9.59061V9.59063V9.59065V9.59067V9.59068V9.5907V9.59072V9.59074V9.59076V9.59078V9.59079V9.59081V9.59083V9.59085V9.59086V9.59088V9.5909V9.59091V9.59093V9.59095V9.59096V9.59098V9.59099V9.59101V9.59102V9.59104V9.59105V9.59107V9.59108V9.5911V9.59112V9.59114V9.59116V9.59118V9.5912V9.59121V9.59123V9.59125V9.59126V9.59128V9.59129V9.59131V9.59132V9.59134V9.59136V9.59137V9.59139V9.5914V9.59142V9.59143V9.59145V9.59147V9.59149V9.59151V9.59153V9.59155V9.59157V9.59159V9.59161V9.59163V9.59165V9.59167V9.59169V9.59171V9.59174V9.59176V9.59178V9.5918V9.59182V9.59184V9.59186V9.59188V9.5919V9.59192V9.59194V9.59196V9.59199V9.59201V9.59203V9.59205V9.59207V9.59209V9.59211V9.59213V9.59216V9.59218V9.5922V9.59222V9.59224V9.59226V9.59228V9.59231V9.59233V9.59235V9.59237V9.59239V9.59241V9.59243V9.59246V9.59248V9.5925V9.59252V9.59254V9.59257V9.59259V9.59261V9.59263V9.59265V9.59268V9.5927V9.59272V9.59274V9.59276V9.59278V9.59281V9.59283V9.59285V9.59287V9.5929V9.59292V9.59294V9.59296V9.59298V9.59301V9.59303V9.59305V9.59307V9.59309V9.59312V9.59314V9.59316V9.59318V9.59321V9.59323V9.59325V9.59327V9.5933V9.59332V9.59334V9.59336V9.59339V9.59341V9.59343V9.59345V9.59348V9.5935V9.59352V9.59354V9.59357V9.59359V9.59361V9.59363V9.59366V9.59368V9.5937V9.59372V9.59375V9.59377V9.59379V9.59381V9.59384V9.59386V9.59388V9.59391V9.59393V9.59395V9.59397V9.594V9.59402V9.59404V9.59406V9.59409V9.59411V9.59413V9.59416V9.59418V9.5942V9.59422V9.59425V9.59427V9.59429V9.59431V9.59434V9.59436V9.59438V9.59441V9.59443V9.59445V9.59447V9.5945V9.59452V9.59454V9.59456V9.59459V9.59461V9.59463V9.59465V9.59468V9.5947V9.59472V9.59474V9.59477V9.59479V9.59481V9.59484V9.59486V9.59488V9.5949V9.59493V9.59495V9.59497V9.59499V9.59502V9.59504V9.59506V9.59508V9.59511V9.59513V9.59515V9.59517V9.5952V9.59522V9.59524V9.59526V9.59529V9.59531V9.59533V9.59535V9.59538V9.5954V9.59542V9.59544V9.59546V9.59549V9.59551V9.59553V9.59555V9.59558V9.5956V9.59562V9.59564V9.59566V9.59569V9.59571V9.59573V9.59575V9.59577V9.5958V9.59582V9.59584V9.59586V9.59588V9.59591V9.59593V9.59595V9.59597V9.59599V9.59601V9.59604V9.59606V9.59608V9.5961V9.59612V9.59615V9.59617V9.59619V9.59621V9.59623V9.59625V9.59627V9.5963V9.59632V9.59634V9.59636V9.59638V9.5964V9.59642V9.59645V9.59647V9.59649V9.59651V9.59653V9.59655V9.59657V9.59659V9.59661V9.59663V9.59666V9.59668V9.5967V9.59672V9.59674V9.59676V9.59678V9.5968V9.59682V9.59684V9.59686V9.59688V9.5969V9.59692V9.59695V9.59697V9.59699V9.59701V9.59703V9.59705V9.59707V9.59709V9.59711V9.59713V9.59715V9.59717V9.59719V9.59721V9.59723V9.59725V9.59727V9.59729V9.59731V9.59733V9.59735V9.59737V9.59739V9.5974V9.59742V9.59744V9.59746V9.59748V9.5975V9.59752V9.59754V9.59756V9.59758V9.5976V9.59762V9.59764V9.59765V9.59767V9.59769V9.59771V9.59773V9.59775V9.59777V9.59778V9.5978V9.59782V9.59784V9.59786V9.59788V9.59789V9.59791V9.59793V9.59795V9.59797V9.59799V9.598V9.59802V9.59804V9.59806V9.59807V9.59809V9.59811V9.59813V9.59814V9.59816V9.59818V9.5982V9.59821V9.59823V9.59825V9.59826V9.59828V9.5983V9.59832V9.59833V9.59835V9.59837V9.59838V9.5984V9.59842V9.59843V9.59845V9.59846V9.59848V9.5985V9.59851V9.59853V9.59855V9.59856V9.59858V9.59859V9.59861V9.59863V9.59864V9.59866V9.59867V9.59869V9.5987V9.59872V9.59873V9.59875V9.59876V9.59878V9.59879V9.59881V9.59882V9.59884V9.59885V9.59887V9.59888V9.5989V9.59891V9.59892V9.59895V9.59897V9.59898V9.59901V9.59904V9.59906V9.59908V9.5991V9.59913V9.59916V9.59918V9.59921V9.59923V9.59926V9.59928V9.59931V9.59933V9.59935V9.59938V9.5994V9.59942V9.59945V9.59947V9.59949V9.59951V9.59953V9.59955V9.59957V9.59959V9.59961V9.59963V9.59965V9.59967V9.59969V9.5997V9.59972V9.59974V9.59975V9.59977V9.59979V9.5998V9.59982V9.59983V9.59985V9.59987V9.59989V9.59991V9.59992V9.59994V9.59996V9.59997V9.59999V9.60001V9.60002V9.60004V9.60005V9.60007V9.60008C146.25 13.6161 145.962 15.8244 145.447 17.0334L145.447 17.0334L145.443 17.0416C145.191 17.6637 144.959 17.9502 144.717 18.111C144.466 18.2778 144.131 18.3593 143.548 18.4143C142.377 18.5071 139.407 18.564 136.815 18.564C134.218 18.564 131.247 18.507 130.078 18.4126C129.497 18.3576 129.162 18.2762 128.91 18.1092C128.667 17.9479 128.434 17.6608 128.179 17.0384L128.179 17.0384L128.177 17.0332C127.666 15.8231 127.376 13.6135 127.376 9.59836V9.59491V9.59491V9.5949V9.59489V9.59488V9.59487V9.59487V9.59486V9.59485V9.59484V9.59483V9.59483V9.59482V9.59481V9.5948V9.59479V9.59478V9.59477V9.59476V9.59476V9.59475V9.59474V9.59473V9.59472V9.59472V9.59471V9.5947V9.59469V9.59468V9.59468V9.59467V9.59466V9.59465V9.59464V9.59463V9.59462V9.59461V9.5946V9.59459V9.59458V9.59457V9.59456V9.59455V9.59454V9.59453V9.59452V9.59451V9.59449V9.59448V9.59447V9.59446V9.59445V9.59443V9.59442V9.59441V9.5944V9.59438V9.59437V9.59436V9.59434V9.59433V9.59432V9.5943V9.5943V9.59428V9.59427V9.59426V9.59425V9.59424V9.59422V9.59422V9.59421V9.5942V9.59419V9.59418V9.59417V9.59416V9.59416V9.59415V9.59414V9.59413V9.59413V9.59412V9.59411V9.5941V9.59409V9.59409V9.59408V9.59407V9.59406V9.59405V9.59404V9.59404V9.59403V9.59402V9.59401V9.594V9.59399V9.59399V9.59398V9.59397V9.59396V9.59395V9.59394V9.59393V9.59393V9.59392V9.59391V9.5939V9.59389V9.59388V9.59387V9.59386V9.59385V9.59384V9.59383V9.59383V9.59382V9.59381V9.5938V9.59379V9.59378V9.59377V9.59376V9.59375V9.59374V9.59373V9.59372V9.59371V9.5937V9.59369V9.59368V9.59367V9.59366V9.59365V9.59364V9.59363V9.59362V9.59361V9.5936V9.59359V9.59358V9.59357V9.59356V9.59355V9.59354V9.59353V9.59352V9.59351V9.5935V9.59349V9.59348V9.59347V9.59346V9.59344V9.59343V9.59342V9.59341V9.5934V9.59339V9.59338V9.59337V9.59336V9.59335V9.59334V9.59332V9.59331V9.5933V9.59329V9.59328V9.59327V9.59326V9.59324V9.59323V9.59322V9.59321V9.5932V9.59319V9.59317V9.59316V9.59315V9.59314V9.59313V9.59312V9.5931V9.59309V9.59308V9.59307V9.59306V9.59304V9.59303V9.59302V9.59301V9.59299V9.59298V9.59297V9.59296V9.59295V9.59293V9.59292V9.59291V9.5929V9.59288V9.59287V9.59286V9.59284V9.59283V9.59282V9.59281V9.59279V9.59278V9.59277V9.59275V9.59274V9.59273V9.59272V9.5927V9.59269V9.59268V9.59266V9.59265V9.59264V9.59262V9.59261V9.5926V9.59258V9.59257V9.59255V9.59254V9.59253V9.59251V9.5925V9.59249V9.59247V9.59246V9.59244V9.59243V9.59242V9.5924V9.59239V9.59237V9.59236V9.59235V9.59233V9.59232V9.5923V9.59229V9.59227V9.59226V9.59224V9.59223V9.59222V9.5922V9.59219V9.59217V9.59216V9.59214V9.59213V9.59211V9.5921V9.59208V9.59207V9.59205V9.59204V9.59202V9.59201V9.59199V9.59198V9.59196V9.59195V9.59193V9.59192V9.5919V9.59188V9.59187V9.59185V9.59184V9.59182V9.59181V9.59179V9.59178V9.59176V9.59174V9.59173V9.59171V9.5917V9.59168V9.59166V9.59165V9.59163V9.59162V9.5916V9.59158V9.59157V9.59155V9.59154V9.59152V9.5915V9.59149V9.59147V9.59145V9.59144V9.59142V9.5914V9.59139V9.59137V9.59135V9.59134V9.59132V9.5913V9.59129V9.59127V9.59125V9.59124V9.59122V9.5912V9.59118V9.59117V9.59115V9.59113V9.59111V9.5911V9.59108V9.59106V9.59105V9.59103V9.59101V9.59099V9.59097V9.59096V9.59094V9.59092V9.5909V9.59089V9.59087V9.59085V9.59083V9.59081V9.5908V9.59078V9.59076V9.59074V9.59072V9.59071V9.59069V9.59067V9.59065V9.59063V9.59062V9.5906V9.59058V9.59056V9.59054V9.59052V9.5905V9.59048V9.59047V9.59045V9.59043V9.59041V9.59039V9.59037V9.59035V9.59033V9.59031V9.5903V9.59028V9.59026V9.59024V9.59022V9.5902V9.59018V9.59016V9.59014V9.59012V9.5901V9.59008V9.59006V9.59004V9.59002V9.59001V9.58999V9.58997V9.58995V9.58993V9.58991V9.58989V9.58987V9.58985V9.58983V9.58981V9.58979V9.58977V9.58975V9.58974V9.58973V9.58972V9.58972V9.58971V9.5897V9.58969V9.58968V9.58967V9.58967V9.58966V9.58965V9.58964V9.58963V9.58962V9.58961V9.5896V9.58959V9.58958V9.58958V9.58957V9.58956V9.58955V9.58954V9.58953V9.58953V9.58952V9.58951V9.5895V9.58949V9.58948V9.58947V9.58946V9.58945V9.58944V9.58943V9.58942V9.58941V9.5894V9.58939V9.58938V9.58937V9.58936V9.58935V9.58934V9.58933V9.58931V9.5893V9.58929V9.58928V9.58927V9.58925V9.58924V9.58923V9.58922V9.5892V9.58919V9.58918V9.58916V9.58916V9.58914V9.58913V9.58912V9.58911V9.58909V9.58908V9.58906V9.58906V9.58905V9.58904V9.58903V9.58902V9.58901V9.589V9.589V9.58899V9.58898V9.58897V9.58897V9.58896V9.58895V9.58894V9.58893V9.58893V9.58892V9.58891V9.5889V9.58889V9.58889V9.58888V9.58887V9.58886V9.58885V9.58884V9.58884V9.58883V9.58882V9.58881V9.5888V9.58879V9.58878V9.58877V9.58877V9.58876V9.58875V9.58874V9.58873V9.58872V9.58871V9.5887V9.58869V9.58869V9.58868V9.58867V9.58866V9.58865V9.58864V9.58863V9.58862V9.58861V9.5886V9.58859V9.58858V9.58857V9.58856V9.58855V9.58854V9.58853V9.58852V9.58851V9.5885V9.58849V9.58848V9.58847V9.58846V9.58845V9.58844V9.58843V9.58842V9.58841V9.5884V9.58839V9.58838V9.58837V9.58836V9.58835V9.58834V9.58833V9.58832V9.58831V9.5883V9.58829V9.58828V9.58827V9.58826V9.58824V9.58823V9.58822V9.58821V9.5882V9.58819V9.58818V9.58817V9.58816V9.58815V9.58813V9.58812V9.58811V9.5881V9.58809V9.58808V9.58807V9.58805V9.58804V9.58803V9.58802V9.58801V9.588V9.58798V9.58797V9.58796V9.58795V9.58794V9.58792V9.58791V9.5879V9.58789V9.58788V9.58786V9.58785V9.58784V9.58783V9.58782V9.5878V9.58779V9.58778V9.58777V9.58775V9.58774V9.58773V9.58772V9.5877V9.58769V9.58768V9.58766V9.58765V9.58764V9.58763V9.58761V9.5876V9.58759V9.58757V9.58756V9.58755V9.58753V9.58752V9.58751V9.58749V9.58748V9.58747V9.58745V9.58744V9.58743V9.58741V9.5874V9.58739V9.58737V9.58736V9.58735V9.58733V9.58732V9.5873V9.58729V9.58728V9.58726V9.58725V9.58723V9.58722V9.58721V9.58719V9.58718V9.58716V9.58715V9.58713V9.58712V9.58711V9.58709V9.58708V9.58706V9.58705V9.58703V9.58702V9.587V9.58699V9.58697V9.58696V9.58694V9.58693V9.58692V9.5869V9.58688V9.58687V9.58685V9.58684V9.58682V9.58681V9.58679V9.58678V9.58676V9.58675V9.58673V9.58672V9.5867V9.58669V9.58667V9.58665V9.58664V9.58662V9.58661V9.58659V9.58658V9.58656V9.58654V9.58653V9.58651V9.5865V9.58648V9.58646V9.58645V9.58643V9.58642V9.5864V9.58638V9.58637V9.58635V9.58634V9.58632V9.5863V9.58629V9.58627V9.58625V9.58624V9.58622V9.5862V9.58619V9.58617V9.58615V9.58613V9.58612V9.5861V9.58608V9.58607V9.58605V9.58603V9.58602V9.586V9.58598V9.58596V9.58595V9.58593V9.58591V9.5859V9.58588V9.58586V9.58584V9.58582V9.58581V9.58579V9.58577V9.58575V9.58574V9.58572V9.5857V9.58568V9.58566V9.58565V9.58563V9.58561V9.58559V9.58558V9.58556V9.58554V9.58552V9.5855V9.58548V9.58547V9.58545V9.58543V9.58541V9.58539V9.58537V9.58535V9.58534V9.58532V9.5853V9.58528V9.58526V9.58524V9.58522V9.5852V9.58519V9.58517V9.58515V9.58513V9.58511V9.58509V9.58507V9.58505V9.58503V9.58501V9.58499V9.58497V9.58496V9.58494V9.58492V9.5849V9.58488V9.58486V9.58484V9.58482V9.5848V9.58478V9.58476V9.58474V9.58472V9.5847V9.58468V9.58466V9.58464V9.58462V9.5846V9.58458C127.376 5.55338 127.666 3.35934 128.178 2.13428L128.178 2.13429L128.18 2.13054C128.434 1.50686 128.667 1.22005 128.909 1.06069C129.16 0.895743 129.494 0.817033 130.075 0.770654L130.075 0.770696L130.082 0.770098C131.243 0.662413 134.212 0.615479 136.815 0.615479C139.414 0.615479 142.381 0.662428 143.543 0.771758L143.543 0.771821L143.551 0.77244C144.134 0.817957 144.467 0.896783 144.717 1.06133C144.958 1.22026 145.189 1.50646 145.442 2.12927ZM133.829 14.7575V15.824L134.648 15.1419L140.859 9.97409L141.321 9.58975L140.859 9.2054L134.648 4.03762L133.829 3.35547V4.42196V14.7575Z" fill="#334155" stroke="#334155"/>
<path d="M98.2783 10.7755C98.2917 10.7036 98.3057 10.6285 98.3197 10.5531C98.3586 10.3441 98.3979 10.1327 98.4264 9.98153C98.0118 9.30517 97.7152 8.16624 97.7152 7.1161C97.7152 5.76231 98.1019 4.40878 98.8438 3.38028C99.5925 2.34218 100.714 1.62767 102.135 1.62767C103.367 1.62767 104.416 2.18826 105.145 3.12663C105.867 4.05677 106.264 5.34029 106.264 6.80225C106.264 8.41292 105.958 9.81378 105.42 10.8314C104.888 11.8398 104.069 12.5619 103.036 12.5619C102.412 12.5619 101.893 12.219 101.576 11.7234C101.26 11.2303 101.137 10.5812 101.257 9.89816L101.257 9.89697C101.348 9.38234 101.473 8.84813 101.591 8.34511C101.633 8.1648 101.675 7.98849 101.713 7.81852C101.864 7.15239 101.97 6.58918 101.97 6.15915C101.97 5.77455 101.89 5.4716 101.773 5.28266C101.668 5.1141 101.544 5.04253 101.373 5.04253C101.191 5.04253 100.934 5.16976 100.695 5.58704C100.463 5.99418 100.3 6.60282 100.3 7.33638C100.3 7.80307 100.36 8.19311 100.419 8.46392C100.448 8.59906 100.477 8.7037 100.498 8.77237C100.508 8.80668 100.516 8.83193 100.522 8.84743L100.527 8.86325L100.528 8.86409L100.528 8.86429L100.528 8.86464L100.528 8.86517L100.528 8.86521L100.528 8.86549L100.576 8.99281L100.552 9.1285L100.06 9.04064L100.552 9.12856L100.552 9.12872L100.552 9.12938L100.551 9.13199L100.55 9.14234L100.542 9.18277L100.515 9.33707L100.415 9.89459L100.103 11.6474C99.8678 12.963 99.6132 14.3906 99.5333 14.84C99.409 15.5409 99.4148 16.4892 99.4607 17.3154C99.4623 17.3438 99.4639 17.3721 99.4656 17.4001C99.7602 16.703 100.061 15.8876 100.192 15.2193L98.2783 10.7755ZM98.2783 10.7755C98.0125 10.4764 97.7647 10.041 97.5639 9.50263C97.2793 8.73967 97.1207 7.85342 97.1207 7.07228C97.1207 5.34235 97.5964 3.71511 98.4843 2.53343C99.3622 1.36516 100.652 0.615479 102.357 0.615479C105.003 0.615479 107.213 3.12837 107.222 6.74943C107.222 8.65526 106.766 10.3463 106.024 11.5438C105.283 12.7416 104.295 13.3964 103.215 13.3964C102.541 13.3964 101.898 12.9222 101.687 12.394L101.061 10.8249L100.733 12.4823L101.223 12.5794M98.2783 10.7755L101.223 12.5794M101.223 12.5794L100.733 12.4823L100.732 12.4824L100.732 12.4827L100.732 12.4839L100.731 12.4886L100.728 12.5071L100.714 12.5777L100.663 12.8337L100.502 13.6474C100.38 14.2633 100.245 14.9477 100.192 15.2191L101.223 12.5794ZM98.6547 11.0986C98.6547 11.0987 98.654 11.0983 98.6527 11.0975C98.654 11.0982 98.6547 11.0986 98.6547 11.0986Z" fill="#334155" stroke="#334155"/>
<path d="M65.6246 14.4451C64.6031 14.4145 63.6107 13.5724 63.0872 12.1956C63.4421 12.1909 63.7926 12.131 64.1221 12.0061L65.5356 11.4701L64.0813 11.0575C62.9763 10.7441 61.9796 9.44907 61.7382 7.67225C62.0518 7.79445 62.3848 7.86796 62.7272 7.87697L64.0524 7.91184L63.0803 7.01049C62.2842 6.27235 61.709 4.94759 61.709 3.40378C61.709 2.96952 61.7547 2.55278 61.8385 2.15918C63.5785 4.64956 66.0003 6.30073 68.7532 6.48693L69.3822 6.52947L69.2804 5.90734C69.2291 5.59354 69.2071 5.25712 69.2071 4.8978C69.2071 3.67381 69.5649 2.583 70.12 1.81078C70.6755 1.03796 71.3999 0.615479 72.1524 0.615479C72.9268 0.615479 73.6897 1.07149 74.2567 1.90881L74.4581 2.20617L74.8042 2.1103C75.1648 2.01041 75.5152 1.87738 75.8536 1.71252C75.6199 2.12442 75.3361 2.46794 75.0213 2.7286L73.5653 3.93423L75.427 3.60613C75.6618 3.56475 75.8934 3.5098 76.1215 3.4414C75.853 3.82695 75.5617 4.17587 75.248 4.48459L75.0911 4.63905L75.0991 4.8591C75.1063 5.05828 75.1114 5.25582 75.1114 5.45897C75.1114 8.53647 74.2643 11.8418 72.6622 14.3622C71.0641 16.8763 68.7509 18.564 65.7989 18.564C64.4607 18.564 63.186 18.17 62.0266 17.4411C63.5324 17.253 64.8939 16.4591 65.9773 15.2838L66.7201 14.478L65.6246 14.4451Z" fill="#334155" stroke="#334155"/>
<path d="M31.1764 18.4501L31.1764 18.4501C32.1228 18.53 33.0977 18.5673 34.1557 18.5637L34.1605 18.5637C34.2043 18.564 34.2479 18.564 34.2934 18.564C35.302 18.564 36.2346 18.5266 37.1409 18.4501L37.183 18.9484L37.1409 18.4501C37.8825 18.3876 38.5726 18.0333 39.1377 17.3944L39.1377 17.3944C39.6823 16.7786 40.0743 15.9231 40.2768 14.8223L40.2768 14.8223C40.4547 13.8557 40.4653 12.9013 40.4748 11.9315L40.4748 11.9315C40.4817 11.2402 40.4889 10.4224 40.4902 9.59123C40.4902 9.59103 40.4902 9.59084 40.4902 9.59064V9.5888C40.4902 9.5886 40.4902 9.58841 40.4902 9.58821C40.4889 8.75699 40.4817 7.93921 40.4748 7.24795L40.4748 7.2479C40.4653 6.27815 40.4546 5.32358 40.2768 4.35714C40.0743 3.25638 39.6823 2.40086 39.1377 1.78507L39.1377 1.78505C38.5726 1.14611 37.8825 0.7919 37.141 0.729312L31.1764 18.4501ZM31.1764 18.4501C30.4349 18.3876 29.7447 18.0333 29.1797 17.3944C28.6351 16.7786 28.2431 15.923 28.0405 14.8223L31.1764 18.4501ZM27.8271 9.59145C27.8286 10.4226 27.8357 11.2404 27.8426 11.9315L27.8426 11.9315C27.8521 12.9014 27.8627 13.8559 28.0405 14.8223L27.8271 9.59145ZM27.8271 9.59145C27.8286 8.75679 27.8357 7.93906 27.8426 7.24795L27.8426 7.2479C27.8521 6.27816 27.8627 5.32373 28.0405 4.35714L27.8271 9.59145ZM29.1797 1.78505C29.7447 1.14611 30.4348 0.791899 31.1765 0.729312L29.1797 1.78505ZM29.1797 1.78505C28.6351 2.40086 28.2431 3.2564 28.0405 4.3571L29.1797 1.78505ZM34.1615 0.615712L34.1583 0.615722C33.0981 0.612141 32.1229 0.649554 31.1765 0.729308L34.1615 0.615712ZM34.1615 0.615712C35.22 0.61257 36.1946 0.649563 37.1409 0.729308L34.1615 0.615712ZM39.2122 16.9095L39.2122 16.9096C38.6595 17.5346 37.9649 17.9011 37.1601 17.969C36.2048 18.0495 35.2232 18.0868 34.1572 18.0834C33.0942 18.087 32.1124 18.0495 31.1572 17.9688C31.1572 17.9688 31.1572 17.9688 31.1571 17.9688L39.2122 16.9095ZM39.2122 16.9095C39.7264 16.328 40.0577 15.5522 40.226 14.6372C40.3894 13.7493 40.3987 12.8056 40.4072 11.9424L40.4074 11.9212C40.4142 11.2337 40.4213 10.4182 40.4227 9.5906L40.4227 9.58884M39.2122 16.9095L40.4227 9.58884M40.4227 9.58884C40.4213 8.76113 40.4142 7.94573 40.4074 7.25828L40.4072 7.23707C40.3987 6.37387 40.3894 5.43015 40.226 4.54208L40.226 4.54206M40.4227 9.58884L40.226 4.54206M40.226 4.54206C40.0577 3.62713 39.7264 2.85134 39.2122 2.26976L39.2122 2.26968M40.226 4.54206L39.2122 2.26968M39.2122 2.26968C38.6595 1.64488 37.9649 1.27831 37.1602 1.21046L39.2122 2.26968ZM29.1051 2.26976L29.1052 2.26968C29.6578 1.64488 30.3524 1.27831 31.1571 1.21046L29.1051 2.26976ZM29.1051 2.26976C28.5909 2.85134 28.2597 3.62713 28.0913 4.54206L28.0913 4.54208M29.1051 2.26976L28.0913 4.54208M28.0913 4.54208C27.928 5.43016 27.9187 6.37373 27.9102 7.23708L27.91 7.25829C27.9032 7.94631 27.8961 8.76229 27.8946 9.59057L27.8946 9.59234M28.0913 4.54208L27.8946 9.59234M27.8946 9.59234C27.8961 10.417 27.9032 11.2331 27.91 11.9212L28.4099 11.9162L27.8946 9.59234ZM37.1601 1.21046C36.2047 1.12977 35.2232 1.09275 34.1599 1.09593C33.0942 1.09246 32.1126 1.12978 31.1572 1.21046H37.1601ZM34.1319 13.7158C33.4141 13.7158 32.7168 13.3116 32.1798 12.5669C31.6435 11.8232 31.2961 10.7716 31.2961 9.58972C31.2961 8.40788 31.6435 7.35626 32.1798 6.61253C32.7168 5.86784 33.4141 5.4636 34.1319 5.4636C34.8499 5.4636 35.5471 5.86785 36.0841 6.61253C36.6204 7.35626 36.9678 8.40788 36.9678 9.58972C36.9678 10.7716 36.6204 11.8232 36.0841 12.5669C35.5471 13.3116 34.8499 13.7158 34.1319 13.7158ZM34.1319 5.94396C33.3048 5.94396 32.601 6.41135 32.1232 7.07396C31.6447 7.73752 31.3636 8.62886 31.3636 9.58972C31.3636 10.5506 31.6447 11.4419 32.1232 12.1055C32.601 12.7681 33.3048 13.2355 34.1319 13.2355C34.9591 13.2355 35.663 12.7681 36.1407 12.1055C36.6192 11.4419 36.9003 10.5506 36.9003 9.58972C36.9003 8.62887 36.6192 7.73753 36.1407 7.07396C35.663 6.41135 34.9591 5.94396 34.1319 5.94396ZM37.5408 4.59351C37.5408 4.38014 37.6039 4.20758 37.6808 4.10087C37.7583 3.99345 37.8216 3.98324 37.8414 3.98324C37.8613 3.98324 37.9245 3.99347 38.002 4.10085C38.0789 4.20755 38.142 4.38011 38.142 4.59351C38.142 4.80691 38.0789 4.97947 38.002 5.08617C37.9245 5.19355 37.8613 5.20378 37.8414 5.20378C37.8216 5.20378 37.7583 5.19357 37.6808 5.08615C37.6039 4.97944 37.5408 4.80688 37.5408 4.59351Z" fill="#334155" stroke="#334155"/>
<path d="M7.3042 7.31538L7.30334 10.4306C7.30334 10.6441 7.17868 10.817 7.02474 10.817H5.44172H4.94172V11.317V18.6776C4.94172 18.8909 4.81706 19.064 4.66311 19.064H2.33874C2.18479 19.064 2.06013 18.8911 2.06013 18.6776V11.317V10.817H1.56013H0.278607C0.124805 10.817 0 10.6441 0 10.4306V7.31538C0 7.10189 0.124663 6.92881 0.278607 6.92881H1.56013H2.06013V6.42881V4.77874C2.06013 1.94581 3.34655 0.115479 5.33717 0.115479M7.3042 7.31538C7.3042 7.21288 7.27477 7.11471 7.2226 7.04216C7.17044 6.96962 7.09936 6.92881 7.02545 6.92881H5.44172H4.94172V6.42881V5.10617C4.94172 4.23013 5.09225 3.78541 5.91514 3.78541M7.3042 7.31538H7.02545H6.84267H6.80567C6.80597 7.31606 6.80631 7.3168 6.8067 7.31761C6.80847 7.32131 6.81157 7.327 6.81667 7.33408C6.83651 7.36167 6.90423 7.42881 7.02545 7.42881H6.80416M7.3042 7.31538L7.02545 7.31531L6.84285 7.31526M5.91514 3.78541L7.10874 3.78482C7.26255 3.78482 7.38721 3.61174 7.38721 3.39845V0.505792C7.38721 0.292697 7.26269 0.119815 7.10903 0.119421M5.91514 3.78541L5.91489 3.28541C5.41436 3.28546 4.96694 3.42642 4.69807 3.84876C4.47077 4.2058 4.44172 4.67459 4.44172 5.10617V6.92881V7.42881H4.94172H6.80416M5.91514 3.78541V3.28541L6.88721 3.28493M7.10903 0.119421L5.33717 0.115479M7.10903 0.119421L7.10817 0.505792L7.10792 0.61942L7.10775 0.619419L7.10804 0.505792L7.10903 0.119421ZM5.33717 0.115479V0.615479M5.33717 0.115479L5.33606 0.615477L5.33665 0.615479C4.51565 0.615636 3.84462 0.984446 3.36125 1.67225C2.86718 2.37529 2.56013 3.43056 2.56013 4.77874V6.92881V7.42881H2.06013H0.5M5.33717 0.615479L0.500571 7.30885C0.500604 7.30886 0.50054 7.30934 0.50028 7.31028M5.33717 0.615479L6.88721 0.618929M5.33717 0.615479L6.88721 0.618929M0.5 7.42881V7.31538C0.5 7.31304 0.500139 7.31135 0.50028 7.31028M0.5 7.42881V10.317M0.5 7.42881H0.278607C0.402984 7.42881 0.470229 7.35794 0.48723 7.33435C0.493165 7.32611 0.496543 7.31971 0.498415 7.31538C0.499408 7.31308 0.499978 7.31137 0.50028 7.31028M0.50028 7.31028L0.5 10.317M0.5 10.317H0.278607C0.402911 10.317 0.47012 10.3877 0.487137 10.4113C0.493197 10.4197 0.496605 10.4262 0.498469 10.4306C0.499424 10.4328 0.499975 10.4345 0.500269 10.4356M0.5 10.317L0.500556 10.437C0.500523 10.437 0.500395 10.4365 0.500269 10.4356M0.5 10.317H2.06013H2.56013V10.817V18.564M0.5 10.317L2.56069 18.6841C2.56065 18.6841 2.56053 18.6837 2.5604 18.6827M0.5 10.317V10.4306C0.5 10.4329 0.500133 10.4345 0.500269 10.4356M0.5 10.317L0.500269 10.4356M2.56013 18.564H2.33874C2.46288 18.564 2.53014 18.6347 2.54726 18.6584C2.55328 18.6668 2.55669 18.6733 2.55857 18.6776C2.55954 18.6799 2.5601 18.6816 2.5604 18.6827M2.56013 18.564H4.44172M2.56013 18.564V18.6776C2.56013 18.68 2.56026 18.6816 2.5604 18.6827M2.5604 18.6827L4.44172 18.564M4.44172 18.564V18.6776C4.44172 18.6819 4.44126 18.684 4.44117 18.684C4.44108 18.6841 4.44142 18.6819 4.44325 18.6776C4.44511 18.6733 4.4485 18.6668 4.45454 18.6584C4.47153 18.6349 4.53876 18.564 4.66311 18.564H4.44172ZM4.44172 18.564V10.817V10.317H4.94172H6.80337M4.44172 18.564L6.80278 10.4371C6.80275 10.4371 6.80281 10.4366 6.80307 10.4357M6.80337 10.317L6.80334 10.4305V10.4306C6.80334 10.4329 6.80321 10.4346 6.80307 10.4357M6.80337 10.317L6.80416 7.42881M6.80337 10.317H7.02474C6.90059 10.317 6.83333 10.3877 6.81621 10.4114C6.81025 10.4197 6.80685 10.4261 6.80496 10.4305C6.80494 10.4305 6.80493 10.4306 6.80491 10.4306C6.80393 10.4329 6.80337 10.4346 6.80307 10.4357M6.80307 10.4357L6.80416 7.42881M6.80416 7.42881L6.8042 7.31538C6.8042 7.3122 6.80378 7.31037 6.8038 7.31036C6.8038 7.31036 6.80383 7.31048 6.80391 7.31074C6.80409 7.31136 6.80458 7.31289 6.80561 7.31525L6.84285 7.31526M6.80416 7.42881L6.88665 3.40485C6.88662 3.40484 6.88668 3.40435 6.88694 3.40342M6.84285 7.31526L7.02545 7.18394L6.84285 7.31526ZM6.88721 3.28493V3.39845C6.88721 3.40071 6.88708 3.40236 6.88694 3.40342M6.88721 3.28493V0.618929M6.88721 3.28493L7.1085 3.28482C6.98408 3.28491 6.91691 3.35584 6.9 3.37931C6.89399 3.38765 6.8906 3.39411 6.88874 3.39845C6.88779 3.40067 6.88723 3.40234 6.88694 3.40342M6.88694 3.40342L6.88721 0.618929M6.88721 0.618929L7.10769 0.619419C6.98367 0.619082 6.91684 0.548416 6.89999 0.525015C6.89394 0.516618 6.89055 0.510128 6.88871 0.505792C6.88777 0.503602 6.88724 0.501961 6.88695 0.500902M6.88721 0.618929L6.88666 0.499478C6.88669 0.499472 6.88682 0.499938 6.88695 0.500902M6.88721 0.618929V0.505792C6.88721 0.503566 6.88708 0.501944 6.88695 0.500902M6.88721 0.618929L6.88695 0.500902" fill="#334155" stroke="#334155"/>
</svg>
